<?xml version="1.0" encoding="UTF-8"?>
<svg id="Layer_2" data-name="Layer 2" xmlns="http://www.w3.org/2000/svg" viewBox="0 0 530.98 529.17">
  <defs>
    <style>
      .cls-1 {
        fill: ##222245;
      }
    </style>
  </defs>
  <g id="Layer_1-2" data-name="Layer 1">
    <path class="cls-1" d="m49.34,119.6c.43,19.01,17.69,31.98,35.06,34.11,26.02,3.21,28.76-6.13,55.46-39.81,36.28-45.77,57.22-77.89,127.08-85.06,63.82-6.56-145.58,150.24-163.49,166.35-46.08,41.48-54.09,50.95-76,80.46-13.42,18.07-23.25,49.4-26.03,67.07-4.52,28.74,1.82,46.99,17.91,74.06,7.53,12.66,24.73,34.16,38.25,46.39,22.31,20.18,50.58-13.97,86.27-89.53,12.41-26.27,34.36-71.54,48.83-90.34,47.37-61.56,87.88-90.79,93.76-82.28,8.11,11.74-18.81,92.44-26.79,110.33-24.98,56.02-27.88,62.76-54.6,99.38-3.21,4.39-23.17,24.62-43.36,52.34-17.23,23.66-27.8,41.3-6.11,50.64,12.41,5.35,58.96,17.66,95.16,15.1,71.6-5.07,114.76-31.09,133.32-45.46,29.58-22.91,97.46-81.67,82.67-166.67-7.32-42.06-70.07-135.97-56.56-196.3,12.46-55.64,49.79,34.09,49.79,83.93,0,33.74,43.94,43.05,53.68,36.57,11.41-7.58,19.11-23.18,16.99-51.65-4.19-56.23-83.61-92.43-101.23-100.33-26.3-11.79-37.82,15.79-43.93,40.41-15.98,64.51-17.33,90.61-23.64,121.26q-10.04,48.81-21.35,83.89c-6.72,20.83-35.51,138.52-88.56,146.07-20.72,2.95-8.51-48.92,4.84-87.25,6.07-17.42,24.5-55.34,46.07-102.17,23.48-50.99,35.66-73.33,33-104.3-1.56-18.18-6.91-23.83-10.86-26.24-13.4-8.18-33.13-4.19-47.78,5.37-9.28,6.05-34.94,32.31-76.08,81.26-15.54,18.49-37.02,51.62-59.69,67.85-8.32,5.96-102.23,47.06-90.34-30.11,3.66-23.78,23.15-37.33,29.3-43.14,14.91-14.07,78.51-55.82,81.39-57.79,63.88-43.6,56.62-38.43,102.4-75.99,27.74-22.76,37.26-31.94,78.4-67.75C386.6,1.92,326.1,1.55,282.21.08c-26.79-.9-65.25,6.17-92.41,13.69-32.73,9.06-72.23,22.44-100.07,42.68-22.93,16.67-41.42,27.06-40.39,63.15Z"/>
  </g>
</svg>